<?xml version="1.0" encoding="iso-8859-1"?>
<!-- Uploaded to: SVG Repo, www.svgrepo.com, Generator: SVG Repo Mixer Tools -->
<svg height="800px" width="800px" version="1.1" id="Layer_1" xmlns="http://www.w3.org/2000/svg" xmlns:xlink="http://www.w3.org/1999/xlink" 
	 viewBox="0 0 508 508" xml:space="preserve">
<path style="fill:#F4AEA8;" d="M445.4,242h-17.6c-10-36-31.6-66.8-55.6-89.6v-74c-28,0-49.6,16.8-58,40.8h-0.4
	c-19.2-6.8-40-10.4-61.2-10.4c-100.8,0-182.8,82-182.8,182.8c0,60.4,30.4,114,74.4,147.2v45.6c0,11.2,8.8,21.6,20,21.6H181
	c11.2,0,19.2-10.4,19.2-21.6v-17.2c16,4.8,32.4,7.2,50,7.2s34-2.4,50-7.2v17.2c0,11.2,12,21.6,23.2,21.6h16.8
	c11.2,0,20-10.4,20-21.6v-45.6c32-23.6,56.4-52.8,67.6-92.8h17.6c11.2,0,22.8-13.2,22.8-24v-60.8C468.2,250,456.6,242,445.4,242z"/>
<circle style="fill:#F4EFEF;" cx="335.4" cy="234.4" r="20.4"/>
<circle style="fill:#FFC52F;" cx="257" cy="46.4" r="39.2"/>
<path d="M342.6,508h-21.2c-14,0-22-13.6-22-26.8v-12c-15.2,4-30.4,6-46,6s-30.8-2-46-6v12c0,12.8-10,26.8-24,26.8h-16.8
	c-13.6,0-27.2-13.6-27.2-26.8v-43.6C93.8,402,66.2,346.4,66.2,288.4c0-102.8,84.4-186.8,188-186.8c20,0,39.2,3.2,58,9.2
	c2,0.8,3.2,2.8,2.4,5.2c-0.8,2-2.8,3.2-5.2,2.4c-18-6-36.4-8.8-55.6-8.8c-99.2,0-180,80-180,178.8c0,56.4,26.8,110,71.6,144
	c1.2,0.8,1.6,2,1.6,3.2v45.6c0,8.8,10,18.8,19.2,18.8H183c8.8,0,16-10,16-18.8V464c0-1.2,0.4-2.4,1.6-3.2c1.2-0.8,2.4-1.2,3.6-0.8
	c16.4,4.8,32.4,7.2,48.8,7.2c16.8,0,32.8-2.4,48.8-7.2c1.2-0.4,2.4,0,3.6,0.8c1.2,0.8,1.6,2,1.6,3.2v17.2c0,9.2,5.2,18.8,14,18.8
	h21.2c9.6,0,12.8-11.2,12.8-18.8v-45.6c0-1.2,0.8-2.4,1.6-3.2c38.4-28.4,60-56,69.2-89.6c0.4-1.6,2-2.8,4-2.8h17.6
	c8.4,0,15.6-12,15.6-21.2V258c0-9.6-8-14-15.6-14h-17.6c-1.6,0-3.2-1.2-4-2.8c-9.6-34.4-28.8-64.4-55.6-87.6c-1.6-1.6-2-4-0.4-5.6
	s4-2,5.6-0.4c27.2,23.2,47.2,54,57.6,88.4h14.4c14,0,23.6,9.2,23.6,22v60.8c0,13.6-10.4,29.2-23.6,29.2H433
	c-10.4,33.6-32,61.2-69.6,89.6v43.6C363.4,494.4,356.2,508,342.6,508z"/>
<path d="M371.4,158c-2.4,0-4-1.6-4-4V79.6c-30,2-52.8,27.2-52.8,59.2c0,2.4-1.6,4-4,4s-4-1.6-4-4c0-37.6,28.4-67.2,64.8-67.2
	c2.4,0,4,1.6,4,4V154C375.4,156.4,373.8,158,371.4,158z"/>
<path d="M332.6,255.6c-13.6,0-24.4-10.8-24.4-24.4s10.8-24.4,24.4-24.4c4,0,8,1.2,11.6,3.2c2,1.2,2.8,3.6,1.6,5.6s-3.6,2.8-5.6,1.6
	c-2.4-1.2-5.2-2-8-2c-9.2,0-16.4,7.2-16.4,16.4c0,9.2,7.2,16.4,16.4,16.4s16.4-7.2,16.4-16.4c0-2-0.4-4-1.2-6s0.4-4.4,2.4-5.2
	c2-0.8,4.4,0.4,5.2,2.4c1.2,2.8,1.6,6,1.6,8.8C357.4,244.8,346.2,255.6,332.6,255.6z"/>
<path d="M71,214.8c-18.8,0-34-15.2-34-34c0-14.4,9.2-27.6,22.8-32c2-0.8,4.4,0.4,5.2,2.4s-0.4,4.4-2.4,5.2C52.2,160,45,170,45,180.8
	c0,14.4,11.6,26,26,26c9.6,0,13.2-0.8,17.6-7.6c1.2-2,3.6-2.4,5.6-1.2c2,1.2,2.4,3.6,1.2,5.6C89,213.2,82.6,214.8,71,214.8z"/>
<path d="M217.8,130.4c-2,0-3.6-1.2-4-3.2s0.8-4.4,3.2-4.8c12.4-2.8,24.8-4,37.6-4c2.4,0,4,1.6,4,4s-1.6,4-4,4c-12,0-24,1.2-35.6,4
	C218.6,130.4,218.2,130.4,217.8,130.4z"/>
<path d="M132.6,180c-0.8,0-2-0.4-2.8-1.2c-1.6-1.6-1.6-4-0.4-5.6c18.4-20,42-35.6,67.6-44.8c2-0.8,4.4,0.4,5.2,2.4s-0.4,4.4-2.4,5.2
	c-24.4,8.8-46.8,23.6-64.4,42.8C134.6,179.6,133.8,180,132.6,180z"/>
<path d="M254.2,86.4c-24,0-43.2-19.6-43.2-43.2S230.6,0,254.2,0c24,0,43.2,19.6,43.2,43.2S278.2,86.4,254.2,86.4z M254.2,8
	C234.6,8,219,24,219,43.2c0,19.6,16,35.2,35.2,35.2c19.6,0,35.2-16,35.2-35.2C289.4,23.6,273.8,8,254.2,8z"/>
</svg>