<?xml version="1.0" encoding="iso-8859-1"?>
<!-- Uploaded to: SVG Repo, www.svgrepo.com, Generator: SVG Repo Mixer Tools -->
<svg fill="#000000" height="800px" width="800px" version="1.1" id="Layer_1" xmlns="http://www.w3.org/2000/svg" xmlns:xlink="http://www.w3.org/1999/xlink" 
	 viewBox="0 0 512 512" xml:space="preserve">
<g>
	<g>
		<circle cx="179.2" cy="230.4" r="25.6"/>
	</g>
</g>
<g>
	<g>
		<path d="M409.6,0c-35.345,0-64.811,24.013-73.745,56.516c8.439,1.647,16.708,3.678,24.815,6.05
			C366.874,41.293,386.338,25.6,409.6,25.6c28.228,0,51.2,22.972,51.2,51.2c0,11.913-4.258,22.741-11.102,31.454
			c6.733,5.299,13.116,10.906,19.2,16.802C479.676,111.829,486.4,95.189,486.4,76.8C486.4,34.381,452.019,0,409.6,0z"/>
	</g>
</g>
<g>
	<g>
		<path d="M512,281.6c0-112.93-103.356-204.8-230.4-204.8c-22.886,0-45.892,3.243-68.565,9.643l-69.043-55.236
			C139.366,27.511,133.709,25.6,128,25.6c-3.772,0-7.561,0.828-11.085,2.526C108.041,32.393,102.4,41.361,102.4,51.2v102.417
			c-14.464,15.872-25.941,33.007-34.313,51.183H25.6C11.46,204.8,0,216.26,0,230.4v102.4c0,14.14,11.46,25.6,25.6,25.6h42.675
			c9.958,21.888,24.038,42.01,41.634,59.537c-4.872,9.088-7.509,19.362-7.509,30.063c0,35.294,28.715,64,64,64
			c23.868,0,44.732-13.141,55.731-32.563c19.388,4.625,39.296,6.963,59.469,6.963c20.173,0,40.081-2.338,59.469-6.963
			C352.068,498.859,372.932,512,396.8,512c35.285,0,64-28.706,64-64c0-10.692-2.637-20.966-7.492-30.046
			C490.897,380.604,512,332.134,512,281.6z M417.246,415.599c10.76,6.81,17.954,18.731,17.954,32.401
			c0,21.205-17.195,38.4-38.4,38.4c-21.205,0-38.4-17.195-38.4-38.4c0-0.128,0.034-0.239,0.034-0.358
			c-23.74,8.422-49.638,13.158-76.834,13.158s-53.094-4.736-76.834-13.158c0,0.12,0.034,0.23,0.034,0.358
			c0,21.205-17.195,38.4-38.4,38.4c-21.205,0-38.4-17.195-38.4-38.4c0-13.67,7.194-25.591,17.954-32.401
			c-28.186-21.862-49.254-50.44-60.348-82.799H25.6V230.4h59.793c8.508-25.003,23.475-47.411,42.607-66.534V51.2l79.65,63.718
			c22.997-7.834,47.778-12.518,73.95-12.518c113.109,0,204.8,80.23,204.8,179.2C486.4,334.985,459.571,382.771,417.246,415.599z"/>
	</g>
</g>
</svg>